<svg width="25" height="25" viewBox="0 0 25 25" fill="none" xmlns="http://www.w3.org/2000/svg">
<path d="M18.75 15.625C18.5066 15.6255 18.2707 15.5407 18.0833 15.3854L12.5 10.7187L6.90624 15.2187C6.79969 15.3053 6.67709 15.3699 6.54548 15.4089C6.41388 15.4479 6.27587 15.4605 6.13938 15.446C6.00289 15.4314 5.87062 15.3901 5.75016 15.3243C5.62971 15.2585 5.52345 15.1695 5.43749 15.0625C5.35096 14.956 5.28634 14.8334 5.24735 14.7017C5.20836 14.5701 5.19576 14.4321 5.21028 14.2956C5.2248 14.1592 5.26615 14.0269 5.33196 13.9064C5.39777 13.786 5.48673 13.6797 5.59374 13.5937L11.8437 8.5625C12.0301 8.40929 12.2639 8.32553 12.5052 8.32553C12.7465 8.32553 12.9803 8.40929 13.1667 8.5625L19.4167 13.7708C19.5221 13.8583 19.6093 13.9657 19.6732 14.0869C19.7371 14.2081 19.7765 14.3407 19.7891 14.4771C19.8017 14.6135 19.7872 14.7511 19.7465 14.882C19.7059 15.0128 19.6398 15.1343 19.5521 15.2396C19.4551 15.3591 19.3329 15.4556 19.1943 15.5223C19.0556 15.5889 18.9038 15.624 18.75 15.625Z" fill="white"/>
</svg>
